<?xml version="1.0"?>
<svg xmlns="http://www.w3.org/2000/svg" height="512px" viewBox="0 0 512 512" width="512px"><path d="m481.976562 190.863281v-108.839843h-166.304687l127.230469-54.441407-11.804688-27.582031-191.683594 82.023438h-209.390624v108.839843h-30.023438v321.136719h512v-321.136719zm-30-78.839843v78.839843h-331.90625v-25.144531l125.492188-53.695312zm-391.953124 0h109.28125l-79.234376 33.902343v44.9375h-30.046874zm421.976562 369.976562h-452v-261.136719h452zm0 0" fill="#FFFFFF"/><path d="m271.035156 336.433594h180.929688v30h-180.929688zm0 0" fill="#FFFFFF"/><path d="m271.035156 276.382812h180.929688v30h-180.929688zm0 0" fill="#FFFFFF"/><path d="m271.035156 396.480469h180.929688v30h-180.929688zm0 0" fill="#FFFFFF"/><path d="m150.523438 441.957031c49.917968 0 90.523437-40.609375 90.523437-90.523437 0-49.917969-40.609375-90.523438-90.523437-90.523438-49.914063 0-90.523438 40.609375-90.523438 90.523438 0 49.914062 40.609375 90.523437 90.523438 90.523437zm0-151.050781c33.375 0 60.523437 27.152344 60.523437 60.523438 0 33.375-27.148437 60.523437-60.523437 60.523437-33.371094 0-60.523438-27.148437-60.523438-60.523437 0-33.371094 27.152344-60.523438 60.523438-60.523438zm0 0" fill="#FFFFFF"/></svg>
